<svg width="57" height="58" viewBox="0 0 57 58" fill="none" xmlns="http://www.w3.org/2000/svg">
<circle cx="28.4339" cy="29.0542" r="27.1516" stroke="#282828" stroke-width="2"/>
<path fill-rule="evenodd" clip-rule="evenodd" d="M27.6385 9.86772C27.5359 9.93211 26.6032 12.3012 23.7517 19.7401C21.3572 25.987 20 29.6074 20 29.7479C20 29.9012 20.054 30.0274 20.1778 30.1633L20.3556 30.3586H22.9521C24.3801 30.3586 25.5485 30.3819 25.5485 30.4106C25.5485 30.4392 24.309 34.316 22.794 39.0257C21.2791 43.7354 20.0394 47.6824 20.0391 47.7968C20.0383 48.0967 20.2642 48.3806 20.5036 48.3806C20.6499 48.3806 20.7536 48.3105 20.9224 48.0978C21.1429 47.8199 36.4675 24.0891 36.6617 23.7249C36.7928 23.479 36.7879 23.104 36.6506 22.8829L36.5402 22.7048L33.5036 22.6671L30.467 22.6294L33.3013 16.7855C34.8601 13.5713 36.1723 10.8499 36.2172 10.7379C36.3396 10.4321 36.3167 10.2371 36.1298 9.99312L35.9608 9.77271L31.8673 9.77783C28.9627 9.78145 27.7344 9.80754 27.6385 9.86772ZM34.8381 11.1502C34.8226 11.2028 33.5064 13.9124 31.9131 17.1717C30.004 21.0771 29.0163 23.1641 29.0163 23.2929C29.0163 23.4003 29.0791 23.5834 29.1558 23.6997L29.2952 23.9113L32.2514 23.949L35.2076 23.9867L28.7453 33.9872C25.191 39.4874 22.2775 43.9821 22.271 43.9754C22.2644 43.9686 23.274 40.7963 24.5146 36.9257C25.7553 33.0551 26.7726 29.7848 26.7754 29.6584C26.7789 29.4968 26.7338 29.3763 26.6236 29.2526L26.4668 29.0766H23.8981C22.4853 29.0766 21.3293 29.0596 21.3293 29.0388C21.3293 29.018 22.8768 24.963 24.7683 20.0278L28.2073 11.0546H31.5367C34.2013 11.0546 34.8606 11.0737 34.8381 11.1502Z" fill="#DCA63D"/>
</svg>
