<svg width="58" height="58" viewBox="0 0 58 58" fill="none" xmlns="http://www.w3.org/2000/svg">
<circle cx="29.0588" cy="29.0542" r="27.1516" stroke="#282828" stroke-width="2"/>
<path fill-rule="evenodd" clip-rule="evenodd" d="M22.2744 15.8119C20.6883 16.0529 19.3615 16.8418 18.2347 18.2139C17.2266 19.4415 16.6194 20.7432 16.2666 22.4334C15.6539 25.3683 16.0994 28.2583 17.5828 30.9716C18.534 32.7114 19.7607 34.3082 22.0169 36.7436C23.4521 38.2927 27.8262 42.8084 28.0385 42.96C28.2386 43.1029 28.3129 43.12 28.7352 43.12C29.1573 43.12 29.2321 43.1028 29.432 42.9602C29.6449 42.8084 34.0289 38.282 35.4536 36.7431C37.716 34.2993 38.9377 32.709 39.8877 30.9716C41.3711 28.2583 41.8166 25.3683 41.2039 22.4334C40.8511 20.7432 40.2439 19.4415 39.2358 18.2139C38.2312 16.9907 37.1558 16.2847 35.7459 15.9232C35.0417 15.7426 33.7373 15.7268 33.1173 15.8913C31.3989 16.3472 30.0777 17.3902 28.8721 19.2425L28.7352 19.4528L28.5984 19.2425C27.4138 17.4224 26.1126 16.3795 24.4554 15.9218C23.9607 15.7853 22.8263 15.728 22.2744 15.8119ZM23.9388 17.6491C25.349 17.9467 26.5696 18.9373 27.534 20.5669C27.7007 20.8485 27.9029 21.1898 27.9833 21.3255C28.3538 21.9501 29.1166 21.9501 29.4872 21.3255C29.5676 21.1898 29.7698 20.8485 29.9364 20.5669C31.2547 18.3394 33.0896 17.29 35.0892 17.6201C37.3091 17.9865 39.0426 19.8696 39.7045 22.6335C40.2277 24.8183 39.9969 27.1124 39.0462 29.1786C38.2496 30.9097 36.9215 32.72 34.6076 35.2286C33.4871 36.4434 28.7798 41.3433 28.7332 41.3434C28.6876 41.3435 23.9977 36.4578 22.8629 35.2281C19.3048 31.3723 17.9004 28.9638 17.5621 26.1374C17.3436 24.3122 17.6586 22.3466 18.4165 20.8047C19.5632 18.4719 21.7948 17.1967 23.9388 17.6491Z" fill="#DCA63D"/>
</svg>
