<svg width="57" height="58" viewBox="0 0 57 58" fill="none" xmlns="http://www.w3.org/2000/svg">
<path fill-rule="evenodd" clip-rule="evenodd" d="M38.5046 13.8025C38.4268 13.8142 38.1299 13.854 37.8448 13.8911C36.7555 14.0329 35.4819 14.4056 34.2631 14.939C31.3492 16.2145 28.5858 18.4882 26.5176 21.3122L26.1565 21.8053L25.5219 21.8629C22.5957 22.1284 19.7128 23.786 17.6383 26.3957C17.2954 26.8271 17.2725 26.872 17.2725 27.1152C17.2725 27.3121 17.304 27.4206 17.4031 27.5648L17.5336 27.7549L19.4414 28.1131C20.4907 28.3102 21.3979 28.4803 21.4575 28.4912C21.5572 28.5095 21.5438 28.5431 21.2851 28.9216C20.9666 29.3874 20.907 29.6049 21.0161 29.9039C21.116 30.1779 27.578 38.5731 27.7554 38.6593C27.9715 38.7643 28.1402 38.6771 28.48 38.2845L28.7953 37.9203L29.0784 40.4856C29.2761 42.2778 29.3851 43.0978 29.4402 43.2068C29.4835 43.2927 29.5854 43.3986 29.6665 43.4424C30.0018 43.6231 30.3265 43.2935 31.1701 41.9156C32.7685 39.3051 33.7086 36.1554 33.9056 32.7509L33.9512 31.9623L34.7206 30.9419C36.1896 28.9935 37.2675 27.0344 38.1929 24.6311C39.4274 21.4248 40.1284 17.902 40.1299 14.8975C40.1303 14.2146 40.0503 13.9362 39.8211 13.8228C39.7093 13.7675 38.8297 13.754 38.5046 13.8025ZM39.1019 15.6343C38.9695 20.3795 37.0154 26.0011 34.1701 29.8226C33.7542 30.3811 28.18 36.9285 27.9917 37.0796C27.9641 37.1018 26.6519 35.4414 25.0536 33.3615L22.1655 29.6034L24.7075 25.8991C26.1056 23.8618 27.5019 21.8775 27.8106 21.4897C30.7507 17.7942 34.9142 15.3466 38.6931 15.092C39.1541 15.0609 39.1192 15.0146 39.1019 15.6343ZM32.684 19.5619C31.7383 19.8276 30.9781 20.8319 30.774 22.0853C30.7367 22.3142 30.7062 22.6118 30.7062 22.7468C30.7062 23.9054 31.2943 25.1458 32.0814 25.6474C32.417 25.8613 32.914 26.0254 33.226 26.0254C34.1165 26.0254 35.0699 25.2602 35.4553 24.2361C35.6197 23.7994 35.7458 23.1527 35.7458 22.7468C35.7458 21.5858 35.1467 20.3242 34.3647 19.8386C33.7987 19.4872 33.2635 19.3991 32.684 19.5619ZM33.8996 20.9906C34.1582 21.1648 34.4422 21.5344 34.5754 21.8704C34.733 22.2677 34.7521 23.0033 34.6169 23.4697C34.1735 24.9993 32.4599 25.0981 31.8787 23.6275C31.7524 23.308 31.704 22.5703 31.7841 22.1849C31.8951 21.6503 32.3457 21.0397 32.748 20.8785C33.0116 20.7729 33.6717 20.8372 33.8996 20.9906ZM25.0409 23.4423C24.0244 24.9694 22.3721 27.3153 22.313 27.3153C22.1946 27.3153 18.9557 26.705 18.9357 26.6789C18.9066 26.641 19.4802 26.0675 19.9844 25.6307C20.5364 25.1524 21.7676 24.3473 22.4265 24.0339C23.0044 23.7591 23.9869 23.4286 24.5777 23.3104C25.245 23.1769 25.2219 23.1703 25.0409 23.4423ZM32.8015 33.8833C32.5519 36.0567 31.9174 38.1834 30.9648 40.0395C30.5761 40.7967 30.2343 41.3799 30.203 41.3391C30.1733 41.3004 29.712 37.0393 29.7255 36.9275C29.737 36.8324 32.8286 33.186 32.8615 33.2288C32.8688 33.2381 32.8417 33.5327 32.8015 33.8833ZM20.5024 34.7422C19.9239 34.8518 19.3857 35.1696 18.8981 35.6895C18.4584 36.1582 17.927 37.4162 17.2997 39.4735C16.9008 40.7812 16 44.2897 16 44.5352C16 44.7905 16.1987 45.0841 16.4057 45.1347C16.5335 45.1659 16.7555 45.097 17.4043 44.8247C20.7523 43.4202 22.7318 42.2658 23.2773 41.3996C24.327 39.7328 24.2837 37.4739 23.1729 35.9493C22.6952 35.2937 22.0586 34.8718 21.3445 34.7375C20.974 34.6678 20.8924 34.6683 20.5024 34.7422ZM21.7027 36.1969C22.2193 36.4596 22.6809 37.0587 22.8918 37.7401C22.9771 38.0159 22.9964 38.2006 22.9975 38.7551C22.9988 39.4146 22.9941 39.4451 22.8244 39.8919C22.5253 40.6795 22.1737 41.029 20.9987 41.7066C20.673 41.8944 20.1628 42.1711 19.8647 42.3214C19.1279 42.6929 17.3114 43.5141 17.2895 43.4855C17.2507 43.4351 18.0246 40.6077 18.4256 39.3344C18.6997 38.4642 19.121 37.3543 19.2805 37.0823C19.5379 36.6431 19.873 36.3337 20.3118 36.1299C20.6382 35.9783 21.3393 36.0121 21.7027 36.1969Z" fill="#DCA63D"/>
<circle cx="28.6837" cy="29.0542" r="27.1516" stroke="#282828" stroke-width="2"/>
</svg>
