<svg width="35" height="35" viewBox="0 0 35 35" fill="none" xmlns="http://www.w3.org/2000/svg">
<path fill-rule="evenodd" clip-rule="evenodd" d="M15.9302 0.0414148C12.5482 0.372538 9.42239 1.61849 6.68173 3.72786C5.3471 4.75505 3.61388 6.68551 2.61227 8.26026C2.1797 8.94037 1.33765 10.6638 1.036 11.4862C0.698729 12.4059 0.339259 13.8114 0.162368 14.9019C-0.0541225 16.2366 -0.0541225 18.7709 0.162368 20.1056C0.468468 21.9925 0.952693 23.5179 1.78152 25.2067C2.68708 27.0516 3.62867 28.3594 5.1365 29.8664C6.64439 31.3734 7.95293 32.3145 9.79892 33.2195C11.4886 34.0478 13.0149 34.5318 14.9029 34.8377C16.2384 35.0541 18.7741 35.0541 20.1096 34.8377C21.9976 34.5318 23.5238 34.0478 25.2136 33.2195C27.0595 32.3145 28.3681 31.3734 29.876 29.8664C31.3838 28.3594 32.3254 27.0516 33.2309 25.2067C33.8324 23.9812 34.1349 23.178 34.459 21.9465C34.8905 20.3063 35 19.4072 35 17.5038C35 15.6003 34.8905 14.7012 34.459 13.0611C34.1349 11.8295 33.8324 11.0263 33.2309 9.80084C32.3254 7.95591 31.3838 6.64812 29.876 5.14109C28.3681 3.63412 27.0595 2.69307 25.2136 1.78803C23.5255 0.960425 21.969 0.466684 20.1439 0.179725C19.1368 0.0214215 16.8882 -0.0523896 15.9302 0.0414148ZM19.4696 1.86115C22.3634 2.24027 25.0563 3.37127 27.333 5.16375C27.9559 5.65414 29.3626 7.06011 29.8533 7.68264C31.2955 9.51238 32.4483 11.9247 32.9119 14.083C33.384 16.2813 33.384 18.7262 32.9119 20.9245C32.4483 23.0828 31.2955 25.4951 29.8533 27.3249C29.3626 27.9474 27.9559 29.3534 27.333 29.8438C25.5022 31.2851 23.0885 32.4373 20.929 32.9006C18.7294 33.3725 16.2831 33.3725 14.0835 32.9006C11.924 32.4373 9.51028 31.2851 7.67951 29.8438C7.05662 29.3534 5.64984 27.9474 5.15918 27.3249C3.71698 25.4951 2.56417 23.0828 2.10057 20.9245C1.62847 18.7262 1.62847 16.2813 2.10057 14.083C2.56417 11.9247 3.71698 9.51238 5.15918 7.68264C5.64984 7.06011 7.05662 5.65414 7.67951 5.16375C9.92867 3.39297 12.6311 2.25006 15.4852 1.86266C16.4447 1.73243 18.4813 1.73167 19.4696 1.86115ZM17.0994 9.13853C16.971 9.20734 16.8096 9.36866 16.7408 9.49697C16.6221 9.71827 16.6156 10.0703 16.6156 16.3713V23.0123L14.78 21.1823L12.9445 19.3525H12.593C12.1678 19.3525 11.8606 19.5708 11.7568 19.9469C11.6126 20.4685 11.5919 20.4427 14.4147 23.2639C17.2601 26.1077 17.2212 26.0768 17.7724 25.9272C17.9696 25.8737 18.5466 25.3334 20.6062 23.2735C23.3726 20.5069 23.3976 20.4756 23.2588 19.9603C23.1545 19.5733 22.8496 19.3525 22.4195 19.3525H22.0679L20.2324 21.1823L18.3969 23.0123V16.3713C18.3969 10.0703 18.3904 9.71827 18.2717 9.49697C18.1337 9.2398 17.7753 9.01343 17.5062 9.01343C17.4109 9.01343 17.2278 9.06971 17.0994 9.13853Z" fill="white"/>
</svg>
