<svg width="57" height="58" viewBox="0 0 57 58" fill="none" xmlns="http://www.w3.org/2000/svg">
<circle cx="28.6837" cy="29.0542" r="27.1516" stroke="#282828" stroke-width="2"/>
<path fill-rule="evenodd" clip-rule="evenodd" d="M25.3081 14.8352C24.6726 14.9966 24.03 15.6416 23.7595 16.3894C23.5763 16.8959 23.5118 17.3298 23.5118 18.0565V18.627H20.0487H16.5856L16.3872 18.7713C16.2707 18.856 16.1497 19.0144 16.0944 19.1549C16.0028 19.387 16 19.7171 16 30.1999C16 37.2807 16.0175 41.125 16.0508 41.352C16.2202 42.5078 16.9418 43.4413 17.8352 43.6605C18.2055 43.7513 39.2649 43.7513 39.6353 43.6605C40.0579 43.5568 40.4973 43.2559 40.8021 42.8615C41.107 42.4672 41.3395 41.8987 41.4197 41.352C41.453 41.1251 41.4705 37.2859 41.4705 30.2161V19.4266L41.3585 19.1394C41.1478 18.5988 41.3658 18.6272 37.4285 18.6271L33.9587 18.627V18.0565C33.9587 17.7429 33.9358 17.3303 33.9079 17.1398C33.7384 15.9839 33.0169 15.0505 32.1235 14.8313C31.7953 14.7508 25.6265 14.7543 25.3081 14.8352ZM32.0696 16.8258C32.3666 17.0219 32.4663 17.3283 32.4663 18.0452V18.627H28.7352H25.0042V18.0452C25.0042 17.3398 25.1043 17.0243 25.3903 16.829C25.5697 16.7065 25.6884 16.7019 28.7248 16.6991C31.7844 16.6964 31.8788 16.7 32.0696 16.8258ZM39.6673 20.6382C39.6548 20.6824 39.1242 22.7397 38.4882 25.2099C37.6755 28.3668 37.2955 29.7572 37.2091 29.89C37.1416 29.9938 37.0038 30.1084 36.903 30.1446C36.7912 30.1849 35.8901 30.2107 34.5929 30.2109L32.4663 30.2112V29.6295C32.4663 28.9126 32.3666 28.6061 32.0696 28.4101C31.8789 28.2843 31.7821 28.2805 28.7352 28.2805C25.6884 28.2805 25.5915 28.2843 25.4009 28.4101C25.1039 28.6061 25.0042 28.9126 25.0042 29.6295V30.2112L22.8775 30.2109C21.5804 30.2107 20.6793 30.1849 20.5675 30.1446C20.4666 30.1084 20.3289 29.9938 20.2613 29.89C20.175 29.7572 19.795 28.3668 18.9822 25.2099C18.3463 22.7397 17.8157 20.6824 17.8031 20.6382C17.7849 20.5739 19.9922 20.5577 28.7352 20.5577C37.4783 20.5577 39.6856 20.5739 39.6673 20.6382ZM18.834 30.5945C18.9967 31.0055 19.4375 31.5768 19.7496 31.781C20.2832 32.1302 20.3682 32.1403 22.778 32.1412L25.0042 32.1419V32.7237C25.0042 33.4406 25.1039 33.7471 25.4009 33.9431C25.5915 34.0689 25.6884 34.0726 28.7352 34.0726C31.7821 34.0726 31.8789 34.0689 32.0696 33.9431C32.3666 33.7471 32.4663 33.4406 32.4663 32.7237V32.1419L34.6924 32.1412C37.1023 32.1403 37.1873 32.1302 37.7208 31.781C38.033 31.5768 38.4738 31.0055 38.6364 30.5945C38.6989 30.4368 39.0245 29.2507 39.3601 27.9587L39.9703 25.6097L39.9742 33.319C39.978 40.9236 39.9767 41.0317 39.8779 41.2823C39.8135 41.4458 39.7078 41.5825 39.5814 41.6659C39.3864 41.7946 39.3106 41.7955 28.7352 41.7955C18.1599 41.7955 18.084 41.7946 17.8891 41.6659C17.7627 41.5825 17.657 41.4458 17.5925 41.2823C17.4937 41.0317 17.4925 40.9236 17.4963 33.319L17.5002 25.6097L18.1104 27.9587C18.446 29.2507 18.7716 30.4368 18.834 30.5945ZM30.9738 31.1766V32.1419H28.7352H26.4966V31.1766V30.2112H28.7352H30.9738V31.1766Z" fill="#DCA63D"/>
</svg>
